<?xml version="1.0" standalone="no"?>
<!DOCTYPE svg PUBLIC "-//W3C//DTD SVG 20010904//EN"
 "http://www.w3.org/TR/2001/REC-SVG-20010904/DTD/svg10.dtd">
<svg version="1.0" xmlns="http://www.w3.org/2000/svg"
 width="700.000000pt" height="700.000000pt" viewBox="0 0 700.000000 700.000000"
 preserveAspectRatio="xMidYMid meet">
<metadata>
Created by potrace 1.14, written by Peter Selinger 2001-2017
</metadata>
<g transform="translate(0.000000,700.000000) scale(0.100000,-0.100000)"
fill="#000000" stroke="none">
<path d="M3329 6745 c-37 -7 -107 -33 -155 -56 -120 -58 -241 -177 -296 -291
-21 -42 -40 -87 -43 -100 -2 -13 -19 -79 -36 -148 -17 -69 -32 -132 -34 -140
-10 -46 -34 -133 -39 -137 -3 -3 -11 1 -19 8 -93 91 -322 289 -376 323 -48 31
-153 73 -209 83 -51 10 -218 10 -270 0 -182 -34 -366 -176 -449 -347 -85 -174
-97 -355 -33 -525 43 -116 112 -297 149 -392 21 -57 36 -104 33 -104 -4 -1 -9
-1 -12 -1 -3 0 -46 3 -95 7 -50 3 -115 8 -145 10 -257 23 -359 25 -441 9 -203
-38 -373 -170 -464 -359 -51 -105 -68 -179 -67 -290 1 -230 119 -438 317 -561
28 -17 114 -71 193 -119 126 -77 141 -89 125 -100 -10 -7 -90 -54 -178 -105
-233 -135 -267 -161 -344 -259 -50 -65 -93 -153 -116 -240 -15 -60 -22 -205
-12 -261 44 -245 216 -446 447 -524 101 -33 163 -36 445 -22 72 4 171 9 222
12 l92 4 -13 -37 c-8 -21 -52 -130 -98 -243 -100 -242 -104 -252 -119 -310
-14 -55 -19 -202 -8 -244 4 -17 10 -44 12 -61 16 -102 108 -252 210 -340 214
-184 526 -212 764 -67 49 29 314 244 382 310 7 7 15 12 16 10 4 -5 64 -272 71
-314 8 -56 43 -171 67 -224 70 -151 215 -279 380 -335 96 -32 119 -36 208 -35
194 0 349 66 484 206 82 85 151 222 179 356 11 50 109 404 115 416 6 10 13 7
32 -11 34 -33 350 -301 407 -344 26 -20 74 -49 108 -64 296 -135 635 -46 819
216 40 58 90 164 101 215 25 122 25 222 0 321 -14 54 -99 273 -146 375 -11 23
-22 54 -26 68 -6 25 -4 26 22 22 32 -5 114 -14 184 -20 25 -3 77 -8 115 -12
170 -18 288 -5 402 46 434 195 529 766 181 1086 -38 35 -214 155 -460 312 -31
21 -57 40 -58 44 0 5 34 27 129 83 145 85 361 226 401 262 187 168 263 415
201 655 -64 247 -247 423 -502 480 -64 15 -239 17 -334 4 -22 -3 -78 -8 -125
-12 -47 -3 -95 -7 -107 -9 -22 -3 -22 -2 -9 28 20 47 135 307 152 345 8 17 24
69 36 114 74 295 -83 619 -363 746 -203 92 -444 78 -624 -37 -22 -15 -136
-104 -254 -198 -210 -168 -216 -172 -228 -150 -7 12 -12 30 -13 39 0 9 -27
126 -60 260 -76 308 -107 376 -224 493 -64 64 -98 89 -166 122 -47 22 -107 46
-135 53 -73 18 -220 20 -296 5z"/>
</g>
</svg>
