<?xml version="1.0" encoding="UTF-8" standalone="no"?>
<!DOCTYPE svg PUBLIC "-//W3C//DTD SVG 1.1//EN" "http://www.w3.org/Graphics/SVG/1.1/DTD/svg11.dtd">
<svg width="100%" height="100%" viewBox="0 0 512 512" version="1.1" xmlns="http://www.w3.org/2000/svg" xmlns:xlink="http://www.w3.org/1999/xlink" xml:space="preserve" xmlns:serif="http://www.serif.com/" style="fill-rule:evenodd;clip-rule:evenodd;stroke-linejoin:round;stroke-miterlimit:2;">
    <rect id="ArtBoard1" x="0" y="0" width="512" height="512" style="fill:none;"/>
    <g id="ArtBoard11" serif:id="ArtBoard1">
        <g transform="matrix(1.14332,0,0,1.14332,-86.1499,-51.0318)">
            <path d="M256.033,92.215C260.62,73.311 277.547,60 297,60C316.453,60 333.38,73.311 337.967,92.215L359.867,182.471L452.473,175.409C471.87,173.93 489.76,185.915 495.771,204.415C501.782,222.916 494.353,243.128 477.792,253.332L398.721,302.051L434.054,387.942C441.455,405.932 435.585,426.65 419.847,438.085C404.109,449.519 382.591,448.699 367.769,436.102L297,375.956L226.231,436.102C211.409,448.699 189.891,449.519 174.153,438.085C158.415,426.65 152.545,405.932 159.946,387.942L195.279,302.051L116.208,253.332C99.647,243.128 92.218,222.916 98.229,204.415C104.24,185.915 122.13,173.93 141.527,175.409L234.133,182.471L256.033,92.215Z" style="fill:rgb(146,31,94);"/>
        </g>
        <g transform="matrix(0.907048,0.696022,-0.696022,0.907048,171.253,-194.193)">
            <path d="M256.033,92.215C260.62,73.311 277.547,60 297,60C316.453,60 333.38,73.311 337.967,92.215L359.867,182.471L452.473,175.409C471.87,173.93 489.76,185.915 495.771,204.415C501.782,222.916 494.353,243.128 477.792,253.332L398.721,302.051L434.054,387.942C441.455,405.932 435.585,426.65 419.847,438.085C404.109,449.519 382.591,448.699 367.769,436.102L297,375.956L226.231,436.102C211.409,448.699 189.891,449.519 174.153,438.085C158.415,426.65 152.545,405.932 159.946,387.942L195.279,302.051L116.208,253.332C99.647,243.128 92.218,222.916 98.229,204.415C104.24,185.915 122.13,173.93 141.527,175.409L234.133,182.471L256.033,92.215Z" style="fill:rgb(215,31,131);"/>
        </g>
    </g>
</svg>
